# xmcd
#
# Track frame offsets:
#	150
#	17850
#	34950
#	52115
#	68410
#	90385
#	108085
#	125035
#	148885
#	169135
#	192085
#	208885
#	229810
#	256705
#	280855
#
# Disc length: 4515 seconds
#
# Revision: 2
# Processed by: cddbd v1.5.2PL0 Copyright (c) Steve Scherf et al.
# Submitted via: audiograbber 1.82.01
#
DISCID=d711a10f
DTITLE=Music Instructor - Best Millenium 2000
DYEAR=2000
DGENRE=Electronic
TTITLE0=Music Instructor - DJ's rock da house
TTITLE1=Music Instructor Feat. Abe - Get Freaky
TTITLE2=Music Instructor Feat. Flying Steps - Supersonic
TTITLE3=Music Instructor Feat. Triple-M Crew - Rock Your Body
TTITLE4=Music Instructor - Electro City
TTITLE5=Music Instructor - Let The Music Play
TTITLE6=Music Instructor - Don't Stop The Rock
TTITLE7=Music Instructor - Funky Nation
TTITLE8=Music Instructor - Breakdance
TTITLE9=Music Instructor - Planet Earth
TTITLE10=Music Instructor - Jam On It
TTITLE11=Music Instructor - Technical Lover
TTITLE12=Music Instructor Feat. Flying Steps - Supersonic (Brainbug Remix)
TTITLE13=Music Instructor Feat. Abe - Get Freaky (Elephant Club Mix)
TTITLE14=Music Instructor - Music Instructor Megamix
EXTD=
EXTT0=
EXTT1=
EXTT2=
EXTT3=
EXTT4=
EXTT5=
EXTT6=
EXTT7=
EXTT8=
EXTT9=
EXTT10=
EXTT11=
EXTT12=
EXTT13=
EXTT14=
PLAYORDER=
